<?xml version="1.0" encoding="UTF-8" standalone="no"?>
<svg
   xmlns:dc="http://purl.org/dc/elements/1.1/"
   xmlns:cc="http://creativecommons.org/ns#"
   xmlns:rdf="http://www.w3.org/1999/02/22-rdf-syntax-ns#"
   xmlns:svg="http://www.w3.org/2000/svg"
   xmlns="http://www.w3.org/2000/svg"
   xmlns:sodipodi="http://sodipodi.sourceforge.net/DTD/sodipodi-0.dtd"
   xmlns:inkscape="http://www.inkscape.org/namespaces/inkscape"
   width="196mm"
   height="90mm"
   viewBox="0 0 19600 9000"
   version="1.1"
   stroke-width="28.222"
   stroke-linejoin="round"
   xml:space="preserve"
   id="svg2"
   inkscape:version="0.91 r13725"
   sodipodi:docname="figure2m.svg"><metadata
     id="metadata314"><rdf:RDF><cc:Work
         rdf:about=""><dc:format>image/svg+xml</dc:format><dc:type
           rdf:resource="http://purl.org/dc/dcmitype/StillImage" /><dc:title></dc:title></cc:Work></rdf:RDF></metadata><defs
     id="defs312" /><sodipodi:namedview
     pagecolor="#ffffff"
     bordercolor="#666666"
     borderopacity="1"
     objecttolerance="10"
     gridtolerance="10"
     guidetolerance="10"
     inkscape:pageopacity="0"
     inkscape:pageshadow="2"
     inkscape:window-width="1918"
     inkscape:window-height="1120"
     id="namedview310"
     showgrid="false"
     inkscape:zoom="1.8599214"
     inkscape:cx="325.81108"
     inkscape:cy="159.46653"
     inkscape:window-x="0"
     inkscape:window-y="25"
     inkscape:window-maximized="1"
     inkscape:current-layer="svg2" /><path
     d="m 6161.0951,6298.0495 -9818,0 0,-8999 19634.9999,0 0,8999 -9816.9999,0 z"
     id="path4"
     inkscape:connector-curvature="0"
     style="fill:#ffffff;stroke:none" /><path
     fill="none"
     stroke="rgb(179,179,179)"
     stroke-linejoin="round"
     d="M 7332,8172 L 1945,8172 1945,379 12719,379 12719,8172 7332,8172 Z"
     id="path6" /><path
     fill="none"
     stroke="rgb(179,179,179)"
     stroke-linejoin="round"
     d="M 12719,8171 L 1945,8171"
     id="path8" /><path
     fill="none"
     stroke="rgb(179,179,179)"
     stroke-linejoin="round"
     d="M 12719,6872 L 1945,6872"
     id="path10" /><path
     fill="none"
     stroke="rgb(179,179,179)"
     stroke-linejoin="round"
     d="M 12719,5573 L 1945,5573"
     id="path12" /><path
     fill="none"
     stroke="rgb(179,179,179)"
     stroke-linejoin="round"
     d="M 12719,4275 L 1945,4275"
     id="path14" /><path
     fill="none"
     stroke="rgb(179,179,179)"
     stroke-linejoin="round"
     d="M 12719,2976 L 1945,2976"
     id="path16" /><path
     fill="none"
     stroke="rgb(179,179,179)"
     stroke-linejoin="round"
     d="M 12719,1677 L 1945,1677"
     id="path18" /><path
     fill="none"
     stroke="rgb(179,179,179)"
     stroke-linejoin="round"
     d="M 12719,378 L 1945,378"
     id="path20" /><path
     fill="none"
     stroke="rgb(179,179,179)"
     stroke-linejoin="round"
     d="M 1945,8321 L 1945,8171"
     id="path22" /><path
     fill="none"
     stroke="rgb(179,179,179)"
     stroke-linejoin="round"
     d="M 1945,5723 L 1945,5573"
     id="path24" /><path
     fill="none"
     stroke="rgb(179,179,179)"
     stroke-linejoin="round"
     d="M 5536,8321 L 5536,8171"
     id="path26" /><path
     fill="none"
     stroke="rgb(179,179,179)"
     stroke-linejoin="round"
     d="M 5536,5723 L 5536,5573"
     id="path28" /><path
     fill="none"
     stroke="rgb(179,179,179)"
     stroke-linejoin="round"
     d="M 9128,8321 L 9128,8171"
     id="path30" /><path
     fill="none"
     stroke="rgb(179,179,179)"
     stroke-linejoin="round"
     d="M 9128,5723 L 9128,5573"
     id="path32" /><path
     fill="none"
     stroke="rgb(179,179,179)"
     stroke-linejoin="round"
     d="M 12719,8321 L 12719,8171"
     id="path34" /><path
     fill="none"
     stroke="rgb(179,179,179)"
     stroke-linejoin="round"
     d="M 12719,5723 L 12719,5573"
     id="path36" /><path
     fill="none"
     stroke="rgb(179,179,179)"
     stroke-linejoin="round"
     d="M 1945,5573 L 12719,5573"
     id="path38" /><path
     fill="none"
     stroke="rgb(179,179,179)"
     stroke-linejoin="round"
     d="M 1795,8171 L 1945,8171"
     id="path40" /><path
     fill="none"
     stroke="rgb(179,179,179)"
     stroke-linejoin="round"
     d="M 1795,8171 L 1945,8171"
     id="path42" /><path
     fill="none"
     stroke="rgb(179,179,179)"
     stroke-linejoin="round"
     d="M 1795,6872 L 1945,6872"
     id="path44" /><path
     fill="none"
     stroke="rgb(179,179,179)"
     stroke-linejoin="round"
     d="M 1795,6872 L 1945,6872"
     id="path46" /><path
     fill="none"
     stroke="rgb(179,179,179)"
     stroke-linejoin="round"
     d="M 1795,5573 L 1945,5573"
     id="path48" /><path
     fill="none"
     stroke="rgb(179,179,179)"
     stroke-linejoin="round"
     d="M 1795,5573 L 1945,5573"
     id="path50" /><path
     fill="none"
     stroke="rgb(179,179,179)"
     stroke-linejoin="round"
     d="M 1795,4275 L 1945,4275"
     id="path52" /><path
     fill="none"
     stroke="rgb(179,179,179)"
     stroke-linejoin="round"
     d="M 1795,4275 L 1945,4275"
     id="path54" /><path
     fill="none"
     stroke="rgb(179,179,179)"
     stroke-linejoin="round"
     d="M 1795,2976 L 1945,2976"
     id="path56" /><path
     fill="none"
     stroke="rgb(179,179,179)"
     stroke-linejoin="round"
     d="M 1795,2976 L 1945,2976"
     id="path58" /><path
     fill="none"
     stroke="rgb(179,179,179)"
     stroke-linejoin="round"
     d="M 1795,1677 L 1945,1677"
     id="path60" /><path
     fill="none"
     stroke="rgb(179,179,179)"
     stroke-linejoin="round"
     d="M 1795,1677 L 1945,1677"
     id="path62" /><path
     fill="none"
     stroke="rgb(179,179,179)"
     stroke-linejoin="round"
     d="M 1795,378 L 1945,378"
     id="path64" /><path
     fill="none"
     stroke="rgb(179,179,179)"
     stroke-linejoin="round"
     d="M 1795,378 L 1945,378"
     id="path66" /><path
     fill="none"
     stroke="rgb(179,179,179)"
     stroke-linejoin="round"
     d="M 1945,8171 L 1945,378"
     id="path68" /><path
     fill="rgb(0,69,134)"
     stroke="none"
     d="M 9417,6303 L 9996,6303 9996,5573 9417,5573 9417,6303 Z"
     id="path70" /><path
     fill="none"
     stroke="rgb(0,0,0)"
     stroke-width="51"
     stroke-linejoin="round"
     d="M 9417,6303 L 9996,6303 9996,5573 9417,5573 9417,6303 Z"
     id="path72" /><path
     fill="rgb(0,69,134)"
     stroke="none"
     d="M 5826,7691 L 6405,7691 6405,5573 5826,5573 5826,7691 Z"
     id="path74" /><path
     fill="none"
     stroke="rgb(0,0,0)"
     stroke-width="51"
     stroke-linejoin="round"
     d="M 5826,7691 L 6405,7691 6405,5573 5826,5573 5826,7691 Z"
     id="path76" /><path
     fill="rgb(0,69,134)"
     stroke="none"
     d="M 2234,5573 L 2813,5573 2813,5007 2234,5007 2234,5573 Z"
     id="path78" /><path
     fill="none"
     stroke="rgb(0,0,0)"
     stroke-width="51"
     stroke-linejoin="round"
     d="M 2234,5573 L 2813,5573 2813,5007 2234,5007 2234,5573 Z"
     id="path80" /><path
     fill="rgb(255,66,14)"
     stroke="none"
     d="M 10228,7077 L 10807,7077 10807,5573 10228,5573 10228,7077 Z"
     id="path82" /><path
     fill="none"
     stroke="rgb(0,0,0)"
     stroke-width="51"
     stroke-linejoin="round"
     d="M 10228,7077 L 10807,7077 10807,5573 10228,5573 10228,7077 Z"
     id="path84" /><path
     fill="rgb(255,66,14)"
     stroke="none"
     d="M 6637,7252 L 7216,7252 7216,5573 6637,5573 6637,7252 Z"
     id="path86" /><path
     fill="none"
     stroke="rgb(0,0,0)"
     stroke-width="51"
     stroke-linejoin="round"
     d="M 6637,7252 L 7216,7252 7216,5573 6637,5573 6637,7252 Z"
     id="path88" /><path
     fill="rgb(255,66,14)"
     stroke="none"
     d="M 3045,5573 L 3624,5573 3624,5392 3045,5392 3045,5573 Z"
     id="path90" /><path
     fill="none"
     stroke="rgb(0,0,0)"
     stroke-width="51"
     stroke-linejoin="round"
     d="M 3045,5573 L 3624,5573 3624,5392 3045,5392 3045,5573 Z"
     id="path92" /><path
     fill="rgb(102,255,255)"
     stroke="none"
     d="M 11039,5573 L 11618,5573 11618,1185 11039,1185 11039,5573 Z"
     id="path94" /><path
     fill="none"
     stroke="rgb(0,0,0)"
     stroke-width="51"
     stroke-linejoin="round"
     d="M 11039,5573 L 11618,5573 11618,1185 11039,1185 11039,5573 Z"
     id="path96" /><path
     fill="rgb(102,255,255)"
     stroke="none"
     d="M 7448,5573 L 8027,5573 8027,2863 7448,2863 7448,5573 Z"
     id="path98" /><path
     fill="none"
     stroke="rgb(0,0,0)"
     stroke-width="51"
     stroke-linejoin="round"
     d="M 7448,5573 L 8027,5573 8027,2863 7448,2863 7448,5573 Z"
     id="path100" /><path
     fill="rgb(102,255,255)"
     stroke="none"
     d="M 3856,5573 L 4435,5573 4435,4724 3856,4724 3856,5573 Z"
     id="path102" /><path
     fill="none"
     stroke="rgb(0,0,0)"
     stroke-width="51"
     stroke-linejoin="round"
     d="M 3856,5573 L 4435,5573 4435,4724 3856,4724 3856,5573 Z"
     id="path104" /><path
     fill="rgb(153,0,255)"
     stroke="none"
     d="M 11850,5573 L 12429,5573 12429,1237 11850,1237 11850,5573 Z"
     id="path106" /><path
     fill="none"
     stroke="rgb(0,0,0)"
     stroke-width="51"
     stroke-linejoin="round"
     d="M 11850,5573 L 12429,5573 12429,1237 11850,1237 11850,5573 Z"
     id="path108" /><path
     fill="rgb(153,0,255)"
     stroke="none"
     d="M 8259,5573 L 8838,5573 8838,2854 8259,2854 8259,5573 Z"
     id="path110" /><path
     fill="none"
     stroke="rgb(0,0,0)"
     stroke-width="51"
     stroke-linejoin="round"
     d="M 8259,5573 L 8838,5573 8838,2854 8259,2854 8259,5573 Z"
     id="path112" /><path
     fill="rgb(153,0,255)"
     stroke="none"
     d="M 4667,5923 L 5247,5923 5247,5573 4667,5573 4667,5923 Z"
     id="path114" /><path
     fill="none"
     stroke="rgb(0,0,0)"
     stroke-width="51"
     stroke-linejoin="round"
     d="M 4667,5923 L 5247,5923 5247,5573 4667,5573 4667,5923 Z"
     id="path116" /><text
     class="TextShape"
     id="text118"><tspan
       class="TextParagraph"
       font-family="Liberation Sans, sans-serif"
       font-size="353px"
       font-weight="400"
       id="tspan120"><tspan
         class="TextPosition"
         x="3502"
         y="8739"
         id="tspan122" /><tspan
         class="TextPosition"
         x="3502"
         y="8739"
         id="tspan124"><tspan
           fill="rgb(0,0,0)"
           stroke="none"
           id="tspan126">ES</tspan></tspan></tspan></text>
<text
     class="TextShape"
     id="text128"><tspan
       class="TextParagraph"
       font-family="Liberation Sans, sans-serif"
       font-size="353px"
       font-weight="400"
       id="tspan130"><tspan
         class="TextPosition"
         x="7094"
         y="8739"
         id="tspan132" /><tspan
         class="TextPosition"
         x="7094"
         y="8739"
         id="tspan134"><tspan
           fill="rgb(0,0,0)"
           stroke="none"
           id="tspan136">PE</tspan></tspan></tspan></text>
<text
     class="TextShape"
     id="text138"><tspan
       class="TextParagraph"
       font-family="Liberation Sans, sans-serif"
       font-size="353px"
       font-weight="400"
       id="tspan140"><tspan
         class="TextPosition"
         x="10686"
         y="8739"
         id="tspan142" /><tspan
         class="TextPosition"
         x="10686"
         y="8739"
         id="tspan144"><tspan
           fill="rgb(0,0,0)"
           stroke="none"
           id="tspan146">PP</tspan></tspan></tspan></text>
<text
     class="TextShape"
     id="text148"><tspan
       class="TextParagraph"
       font-family="Liberation Sans, sans-serif"
       font-size="353px"
       font-weight="400"
       id="tspan150"><tspan
         class="TextPosition"
         x="1404"
         y="8292"
         id="tspan152" /><tspan
         class="TextPosition"
         x="1404"
         y="8292"
         id="tspan154"><tspan
           fill="rgb(0,0,0)"
           stroke="none"
           id="tspan156">-4</tspan></tspan></tspan></text>
<text
     class="TextShape"
     id="text158"><tspan
       class="TextParagraph"
       font-family="Liberation Sans, sans-serif"
       font-size="353px"
       font-weight="400"
       id="tspan160"><tspan
         class="TextPosition"
         x="1404"
         y="6993"
         id="tspan162" /><tspan
         class="TextPosition"
         x="1404"
         y="6993"
         id="tspan164"><tspan
           fill="rgb(0,0,0)"
           stroke="none"
           id="tspan166">-2</tspan></tspan></tspan></text>
<text
     class="TextShape"
     id="text168"><tspan
       class="TextParagraph"
       font-family="Liberation Sans, sans-serif"
       font-size="353px"
       font-weight="400"
       id="tspan170"><tspan
         class="TextPosition"
         x="1510"
         y="5694"
         id="tspan172" /><tspan
         class="TextPosition"
         x="1510"
         y="5694"
         id="tspan174"><tspan
           fill="rgb(0,0,0)"
           stroke="none"
           id="tspan176">0</tspan></tspan></tspan></text>
<text
     class="TextShape"
     id="text178"><tspan
       class="TextParagraph"
       font-family="Liberation Sans, sans-serif"
       font-size="353px"
       font-weight="400"
       id="tspan180"><tspan
         class="TextPosition"
         x="1510"
         y="4395"
         id="tspan182" /><tspan
         class="TextPosition"
         x="1510"
         y="4395"
         id="tspan184"><tspan
           fill="rgb(0,0,0)"
           stroke="none"
           id="tspan186">2</tspan></tspan></tspan></text>
<text
     class="TextShape"
     id="text188"><tspan
       class="TextParagraph"
       font-family="Liberation Sans, sans-serif"
       font-size="353px"
       font-weight="400"
       id="tspan190"><tspan
         class="TextPosition"
         x="1510"
         y="3096"
         id="tspan192" /><tspan
         class="TextPosition"
         x="1510"
         y="3096"
         id="tspan194"><tspan
           fill="rgb(0,0,0)"
           stroke="none"
           id="tspan196">4</tspan></tspan></tspan></text>
<text
     class="TextShape"
     id="text198"><tspan
       class="TextParagraph"
       font-family="Liberation Sans, sans-serif"
       font-size="353px"
       font-weight="400"
       id="tspan200"><tspan
         class="TextPosition"
         x="1510"
         y="1797"
         id="tspan202" /><tspan
         class="TextPosition"
         x="1510"
         y="1797"
         id="tspan204"><tspan
           fill="rgb(0,0,0)"
           stroke="none"
           id="tspan206">6</tspan></tspan></tspan></text>
<text
     class="TextShape"
     id="text208"><tspan
       class="TextParagraph"
       font-family="Liberation Sans, sans-serif"
       font-size="353px"
       font-weight="400"
       id="tspan210"><tspan
         class="TextPosition"
         x="1510"
         y="498"
         id="tspan212" /><tspan
         class="TextPosition"
         x="1510"
         y="498"
         id="tspan214"><tspan
           fill="rgb(0,0,0)"
           stroke="none"
           id="tspan216">8</tspan></tspan></tspan></text>
<path
     d="m 13552.228,697.1133 -106,0 0,-211.0002 211,0 0,211.0002 -105,0 z"
     id="path218"
     inkscape:connector-curvature="0"
     style="fill:#004586;stroke:none" /><path
     d="m 13552.228,697.1133 -106,0 0,-211.0002 211,0 0,211.0002 -105,0 z"
     id="path220"
     inkscape:connector-curvature="0"
     style="fill:none;stroke:#000000;stroke-linejoin:round" /><path
     d="m 13552.228,1195.1136 -106,0 0,-211.00005 211,0 0,211.00005 -105,0 z"
     id="path222"
     inkscape:connector-curvature="0"
     style="fill:#ff420e;stroke:none" /><path
     d="m 13552.228,1195.1136 -106,0 0,-211.00005 211,0 0,211.00005 -105,0 z"
     id="path224"
     inkscape:connector-curvature="0"
     style="fill:none;stroke:#000000;stroke-linejoin:round" /><path
     d="m 13552.228,1692.1136 -106,0 0,-211 211,0 0,211 -105,0 z"
     id="path226"
     inkscape:connector-curvature="0"
     style="fill:#66ffff;stroke:none" /><path
     d="m 13552.228,1692.1136 -106,0 0,-211 211,0 0,211 -105,0 z"
     id="path228"
     inkscape:connector-curvature="0"
     style="fill:none;stroke:#000000;stroke-linejoin:round" /><path
     d="m 13552.228,2190.1136 -106,0 0,-211 211,0 0,211 -105,0 z"
     id="path230"
     inkscape:connector-curvature="0"
     style="fill:#9900ff;stroke:none" /><path
     d="m 13552.228,2190.1136 -106,0 0,-211 211,0 0,211 -105,0 z"
     id="path232"
     inkscape:connector-curvature="0"
     style="fill:none;stroke:#000000;stroke-linejoin:round" /><text
     class="TextShape"
     id="text234"
     y="-3160.8872"
     x="-733.77789"><tspan
       class="TextParagraph"
       font-size="353px"
       font-weight="400"
       id="tspan236"
       style="font-weight:400;font-size:353px;font-family:'Liberation Sans', sans-serif"><tspan
         class="TextPosition"
         x="13757.224"
         y="711.11426"
         id="tspan238" /><tspan
         class="TextPosition"
         x="13757.224"
         y="711.11426"
         id="tspan240"><tspan
           id="tspan242"
           style="fill:#000000;stroke:none" /></tspan><tspan
         class="TextPosition"
         x="13863.224"
         y="711.11426"
         id="tspan244"><tspan
           id="tspan246"
           style="fill:#000000;stroke:none">Downregulated in WT vs. HET</tspan></tspan></tspan></text>
<text
     class="TextShape"
     id="text248"
     y="-3160.8872"
     x="-733.77789"><tspan
       class="TextParagraph"
       font-size="353px"
       font-weight="400"
       id="tspan250"
       style="font-weight:400;font-size:353px;font-family:'Liberation Sans', sans-serif"><tspan
         class="TextPosition"
         x="13757.224"
         y="1209.1154"
         id="tspan252" /><tspan
         class="TextPosition"
         x="13757.224"
         y="1209.1154"
         id="tspan254"><tspan
           id="tspan256"
           style="fill:#000000;stroke:none" /></tspan><tspan
         class="TextPosition"
         x="13863.224"
         y="1209.1154"
         id="tspan258"><tspan
           id="tspan260"
           style="fill:#000000;stroke:none">Downregulated in WT vs. HOM</tspan></tspan></tspan></text>
<text
     class="TextShape"
     id="text262"
     y="-3160.8872"
     x="-733.77789"><tspan
       class="TextParagraph"
       font-size="353px"
       font-weight="400"
       id="tspan264"
       style="font-weight:400;font-size:353px;font-family:'Liberation Sans', sans-serif"><tspan
         class="TextPosition"
         x="13757.224"
         y="1706.1163"
         id="tspan266" /><tspan
         class="TextPosition"
         x="13757.224"
         y="1706.1163"
         id="tspan268"><tspan
           id="tspan270"
           style="fill:#000000;stroke:none" /></tspan><tspan
         class="TextPosition"
         x="13863.224"
         y="1706.1163"
         id="tspan272"><tspan
           id="tspan274"
           style="fill:#000000;stroke:none">Upregulated in WT vs. HET</tspan></tspan></tspan></text>
<text
     class="TextShape"
     id="text276"
     y="-3160.8872"
     x="-733.77789"><tspan
       class="TextParagraph"
       font-size="353px"
       font-weight="400"
       id="tspan278"
       style="font-weight:400;font-size:353px;font-family:'Liberation Sans', sans-serif"><tspan
         class="TextPosition"
         x="13757.224"
         y="2204.1172"
         id="tspan280" /><tspan
         class="TextPosition"
         x="13757.224"
         y="2204.1172"
         id="tspan282"><tspan
           id="tspan284"
           style="fill:#000000;stroke:none" /></tspan><tspan
         class="TextPosition"
         x="13863.224"
         y="2204.1172"
         id="tspan286"><tspan
           id="tspan288"
           style="fill:#000000;stroke:none">Upregulated in WT vs. HOM</tspan></tspan></tspan></text>
<text
     class="TextShape"
     transform="matrix(0,-1,1,0,0,0)"
     id="text290"
     x="-6005.2236"
     y="-5723"><tspan
       class="TextParagraph"
       font-size="318px"
       font-weight="400"
       id="tspan292"
       style="font-weight:400;font-size:318px;font-family:'Liberation Sans', sans-serif"><tspan
         class="TextPosition"
         x="-5497.2236"
         y="508"
         id="tspan294" /><tspan
         class="TextPosition"
         x="-5497.2236"
         y="508"
         id="tspan296"><tspan
           id="tspan298"
           style="fill:#000000;stroke:none">HNF6 Targets</tspan></tspan></tspan></text>
<text
     class="TextShape"
     transform="matrix(0,-1,1,0,0,0)"
     id="text300"
     x="-7152.666"
     y="-4610"><tspan
       class="TextParagraph"
       font-size="318px"
       font-weight="400"
       id="tspan302"
       style="font-weight:400;font-size:318px;font-family:'Liberation Sans', sans-serif"><tspan
         class="TextPosition"
         x="-6050.666"
         y="1102"
         id="tspan304" /><tspan
         class="TextPosition"
         x="-6050.666"
         y="1102"
         id="tspan306"><tspan
           id="tspan308"
           style="fill:#000000;stroke:none">gene enrichment z-score</tspan></tspan></tspan></text>
<rect
     style="opacity:1;fill:none;fill-opacity:1;stroke:#ff0000;stroke-width:14.11111191;stroke-linejoin:round;stroke-miterlimit:10;stroke-dasharray:none;stroke-dashoffset:0;stroke-opacity:1"
     id="rect4442"
     width="10739.104"
     height="30.293665"
     x="1931.9604"
     y="7137.0205" /><text
     xml:space="preserve"
     style="font-style:normal;font-weight:normal;font-size:1128.88891602px;line-height:125%;font-family:sans-serif;letter-spacing:0px;word-spacing:0px;fill:#000000;fill-opacity:1;stroke:none;stroke-width:1px;stroke-linecap:butt;stroke-linejoin:miter;stroke-opacity:1"
     x="15207.419"
     y="6243.2764"
     id="text4444"
     sodipodi:linespacing="125%"><tspan
       sodipodi:role="line"
       id="tspan4446"
       x="15207.419"
       y="6243.2764" /></text>
<text
     style="font-size:12px"
     class="TextShape"
     id="text234-4"
     y="7521.4434"
     x="10308.413"><tspan
       class="TextParagraph"
       font-size="353px"
       font-weight="400"
       id="tspan236-1"
       style="font-weight:400;font-size:353px;font-family:'Liberation Sans', sans-serif">p-value &lt; 0.05</tspan></text>
<rect
     style="opacity:1;fill:none;fill-opacity:1;stroke:#ff0000;stroke-width:14.11111191;stroke-linejoin:round;stroke-miterlimit:10;stroke-dasharray:none;stroke-dashoffset:0;stroke-opacity:1"
     id="rect4442-0"
     width="10739.104"
     height="30.293665"
     x="1940.0072"
     y="3992.6472" /><text
     style="font-size:12px"
     class="TextShape"
     id="text234-4-4"
     y="3856.2778"
     x="1956.5166"><tspan
       class="TextParagraph"
       font-size="353px"
       font-weight="400"
       id="tspan236-1-7"
       style="font-weight:400;font-size:353px;font-family:'Liberation Sans', sans-serif">p-value &lt; 0.05</tspan></text>
</svg>