<?xml version="1.0" encoding="UTF-8" standalone="no"?>
<!-- Created with Inkscape (http://www.inkscape.org/) -->

<svg
   xmlns:dc="http://purl.org/dc/elements/1.1/"
   xmlns:cc="http://creativecommons.org/ns#"
   xmlns:rdf="http://www.w3.org/1999/02/22-rdf-syntax-ns#"
   xmlns:svg="http://www.w3.org/2000/svg"
   xmlns="http://www.w3.org/2000/svg"
   xmlns:sodipodi="http://sodipodi.sourceforge.net/DTD/sodipodi-0.dtd"
   xmlns:inkscape="http://www.inkscape.org/namespaces/inkscape"
   id="svg2"
   version="1.1"
   inkscape:version="0.91 r13725"
   xml:space="preserve"
   width="540"
   height="360"
   viewBox="0 0 540 360"
   sodipodi:docname="Figure6.svg"><metadata
     id="metadata8"><rdf:RDF><cc:Work
         rdf:about=""><dc:format>image/svg+xml</dc:format><dc:type
           rdf:resource="http://purl.org/dc/dcmitype/StillImage" /><dc:title></dc:title></cc:Work></rdf:RDF></metadata><defs
     id="defs6"><clipPath
       clipPathUnits="userSpaceOnUse"
       id="clipPath18"><path
         d="m 98.566759,28.8 245.666481,0 0,230.4 -245.666481,0 0,-230.4 z"
         id="path20"
         inkscape:connector-curvature="0" /></clipPath><clipPath
       clipPathUnits="userSpaceOnUse"
       id="clipPath28"><path
         d="m 98.566759,28.8 245.666481,0 0,230.4 -245.666481,0 0,-230.4 z"
         id="path30"
         inkscape:connector-curvature="0" /></clipPath><clipPath
       clipPathUnits="userSpaceOnUse"
       id="clipPath38"><path
         d="m 98.566759,28.8 245.666481,0 0,230.4 -245.666481,0 0,-230.4 z"
         id="path40"
         inkscape:connector-curvature="0" /></clipPath><clipPath
       clipPathUnits="userSpaceOnUse"
       id="clipPath48"><path
         d="m 98.566759,28.8 245.666481,0 0,230.4 -245.666481,0 0,-230.4 z"
         id="path50"
         inkscape:connector-curvature="0" /></clipPath><clipPath
       clipPathUnits="userSpaceOnUse"
       id="clipPath58"><path
         d="m 98.566759,28.8 245.666481,0 0,230.4 -245.666481,0 0,-230.4 z"
         id="path60"
         inkscape:connector-curvature="0" /></clipPath><clipPath
       clipPathUnits="userSpaceOnUse"
       id="clipPath68"><path
         d="m 98.566759,28.8 245.666481,0 0,230.4 -245.666481,0 0,-230.4 z"
         id="path70"
         inkscape:connector-curvature="0" /></clipPath><clipPath
       clipPathUnits="userSpaceOnUse"
       id="clipPath78"><path
         d="m 98.566759,28.8 245.666481,0 0,230.4 -245.666481,0 0,-230.4 z"
         id="path80"
         inkscape:connector-curvature="0" /></clipPath></defs><sodipodi:namedview
     pagecolor="#ffffff"
     bordercolor="#666666"
     borderopacity="1"
     objecttolerance="10"
     gridtolerance="10"
     guidetolerance="10"
     inkscape:pageopacity="0"
     inkscape:pageshadow="2"
     inkscape:window-width="1918"
     inkscape:window-height="1120"
     id="namedview4"
     showgrid="false"
     inkscape:zoom="2.5111111"
     inkscape:cx="298.76196"
     inkscape:cy="175.98342"
     inkscape:window-x="0"
     inkscape:window-y="25"
     inkscape:window-maximized="1"
     inkscape:current-layer="g84" /><g
     id="g10"
     inkscape:groupmode="layer"
     inkscape:label="Figure6"
     transform="matrix(1.25,0,0,-1.25,0,360)"><rect
       style="fill:#e6e6e6;fill-opacity:1;stroke:#000000;stroke-width:0.8;stroke-miterlimit:10;stroke-dasharray:none;stroke-opacity:1;stroke-linejoin:round"
       id="rect4262"
       width="245.9469"
       height="219.50443"
       x="96.530975"
       y="-249.93629"
       transform="scale(1,-1)" /><g
       id="g14"><g
         id="g16"
         clip-path="url(#clipPath18)"><path
           d="m 271.46746,201.84328 c -7.93328,12.95122 -19.23147,23.51243 -32.6876,30.55538 -13.45614,7.04296 -28.57336,10.30761 -43.73671,9.44519 -15.16334,-0.86242 -29.81292,-5.82006 -42.38372,-14.34331 -12.5708,-8.52324 -22.59867,-20.29738 -29.01232,-34.06458 -6.41366,-13.7672 -8.97628,-29.01913 -7.41412,-44.12643 1.56217,-15.1073 7.19144,-29.51214 16.28645,-41.67567 9.09501,-12.16354 21.31994,-21.636633 35.36879,-27.407285 14.04886,-5.770651 29.40291,-7.625782 44.42189,-5.367211 -3.13811,6.331567 -4.94964,13.23809 -5.32316,20.294787 -0.37352,7.056699 0.69878,14.115859 3.15095,20.743329 2.45216,6.62747 6.23288,12.68453 11.1096,17.79863 4.87672,5.1141 10.74739,9.17821 17.25092,11.94236 -1.66171,5.8568 -2.12082,11.98981 -1.3496,18.02873 0.77122,6.03892 2.75692,11.85971 5.83721,17.11091 3.08029,5.2512 7.1919,9.82496 12.08657,13.44512 4.89467,3.62015 10.47187,6.21234 16.39485,7.62005"
           style="fill:#ff0000;fill-opacity:0.4;fill-rule:nonzero;stroke:none"
           id="path22"
           inkscape:connector-curvature="0" /></g></g><g
       id="g24"><g
         id="g26"
         clip-path="url(#clipPath28)"><path
           d="m 271.46746,201.84328 c 5.25909,-8.58556 8.93251,-18.04688 10.84476,-27.93188 1.91226,-9.885 2.03238,-20.0337 0.35463,-29.96119 5.06383,-2.62535 9.66017,-6.06801 13.60366,-10.18914 3.94349,-4.12113 7.18042,-8.86459 9.58025,-14.03911 9.06047,5.67649 15.81441,14.39315 19.04852,24.58409 3.23411,10.19094 2.74239,21.20702 -1.38683,31.06928 -4.12923,9.86226 -11.63293,17.94251 -21.16312,22.78917 -9.53019,4.84667 -20.47983,6.15103 -30.88187,3.67878"
           style="fill:#008000;fill-opacity:0.4;fill-rule:nonzero;stroke:none"
           id="path32"
           inkscape:connector-curvature="0" /></g></g><g
       id="g34"><g
         id="g36"
         clip-path="url(#clipPath38)"><path
           d="m 271.46746,201.84328 c -5.92298,-1.40771 -11.50018,-3.9999 -16.39485,-7.62005 -4.89467,-3.62016 -9.00628,-8.19392 -12.08657,-13.44512 -3.08029,-5.2512 -5.06599,-11.07199 -5.83721,-17.11091 -0.77122,-6.03892 -0.31211,-12.17193 1.3496,-18.02873 7.03186,2.98871 14.63795,4.38727 22.27302,4.09544 7.63507,-0.29184 15.1122,-2.26694 21.8954,-5.7837 1.67775,9.92749 1.55763,20.07619 -0.35463,29.96119 -1.91225,9.885 -5.58567,19.34632 -10.84476,27.93188"
           style="fill:#b35900;fill-opacity:0.4;fill-rule:nonzero;stroke:none"
           id="path42"
           inkscape:connector-curvature="0" /></g></g><g
       id="g44"><g
         id="g46"
         clip-path="url(#clipPath48)"><path
           d="m 212.31012,74.859364 c 6.05584,-12.218489 16.69188,-21.569415 29.5853,-26.010616 12.89343,-4.4412 27.03193,-3.623984 39.32779,2.273175 12.29586,5.89716 21.78369,16.411261 26.39143,29.246112 4.60774,12.834851 3.97362,26.982755 -1.76388,39.353925 -5.06943,-3.17606 -10.72032,-5.3123 -16.62304,-6.2841 -5.90272,-0.97181 -11.94021,-0.7599 -17.76026,0.62335 -6.40352,-10.45386 -15.0179,-19.380818 -25.23699,-26.152711 -10.2191,-6.771894 -21.79745,-11.226079 -33.92035,-13.049135"
           style="fill:#0000ff;fill-opacity:0.4;fill-rule:nonzero;stroke:none"
           id="path52"
           inkscape:connector-curvature="0" /></g></g><g
       id="g54"><g
         id="g56"
         clip-path="url(#clipPath58)"><path
           d="m 212.31012,74.859364 c 12.1229,1.823056 23.70125,6.277241 33.92035,13.049135 10.21909,6.771893 18.83347,15.698851 25.23699,26.152711 -7.8066,1.85539 -14.97865,5.76038 -20.7735,11.31061 -5.79486,5.55023 -10.00536,12.54729 -12.19553,20.26665 -6.50353,-2.76415 -12.3742,-6.82826 -17.25092,-11.94236 -4.87672,-5.1141 -8.65744,-11.17116 -11.1096,-17.79863 -2.45217,-6.62747 -3.52447,-13.68663 -3.15095,-20.743329 0.37352,-7.056697 2.18505,-13.96322 5.32316,-20.294787"
           style="fill:#b300b3;fill-opacity:0.4;fill-rule:nonzero;stroke:none"
           id="path62"
           inkscape:connector-curvature="0" /></g></g><g
       id="g64"><g
         id="g66"
         clip-path="url(#clipPath68)"><path
           d="m 282.66685,143.95021 c -0.89256,-5.28141 -2.28807,-10.4654 -4.16747,-15.48116 -1.8794,-5.01575 -4.2341,-9.84033 -7.03192,-14.40784 5.82005,-1.38325 11.85754,-1.59516 17.76026,-0.62335 5.90272,0.9718 11.55361,3.10804 16.62304,6.2841 -2.39983,5.17452 -5.63676,9.91798 -9.58025,14.03911 -3.94349,4.12113 -8.53983,7.56379 -13.60366,10.18914"
           style="fill:#0059b3;fill-opacity:0.4;fill-rule:nonzero;stroke:none"
           id="path72"
           inkscape:connector-curvature="0" /></g></g><g
       id="g74"><g
         id="g76"
         clip-path="url(#clipPath78)"><path
           d="m 238.49843,145.63847 c 2.19017,-7.71936 6.40067,-14.71642 12.19553,-20.26665 5.79485,-5.55023 12.9669,-9.45522 20.7735,-11.31061 2.79782,4.56751 5.15252,9.39209 7.03192,14.40784 1.8794,5.01576 3.27491,10.19975 4.16747,15.48116 -6.7832,3.51676 -14.26033,5.49186 -21.8954,5.7837 -7.63507,0.29183 -15.24116,-1.10673 -22.27302,-4.09544"
           style="fill:#663366;fill-opacity:0.4;fill-rule:nonzero;stroke:none"
           id="path82"
           inkscape:connector-curvature="0" /></g></g><g
       id="g84"><text
         transform="matrix(1,0,0,-1,153.38378,170.70024)"
         style="font-variant:normal;font-weight:normal;font-size:12px;font-family:'DejaVu Sans';-inkscape-font-specification:DejaVuSans;writing-mode:lr-tb;fill:#000000;fill-opacity:1;fill-rule:nonzero;stroke:none"
         id="text86"><tspan
           x="0 7.632 15.264 22.896"
           y="0"
           sodipodi:role="line"
           id="tspan88">3168</tspan></text>
<text
         transform="matrix(1,0,0,-1,301.70718,165.2756)"
         style="font-variant:normal;font-weight:normal;font-size:12px;font-family:'DejaVu Sans';-inkscape-font-specification:DejaVuSans;writing-mode:lr-tb;fill:#000000;fill-opacity:1;fill-rule:nonzero;stroke:none"
         id="text90"><tspan
           x="0 7.632 15.264"
           y="0"
           sodipodi:role="line"
           id="tspan92">515</tspan></text>
<text
         transform="matrix(1,0,0,-1,246.07984,167.4229)"
         style="font-variant:normal;font-weight:normal;font-size:12px;font-family:'DejaVu Sans';-inkscape-font-specification:DejaVuSans;writing-mode:lr-tb;fill:#000000;fill-opacity:1;fill-rule:nonzero;stroke:none"
         id="text94"><tspan
           x="0 7.632 15.264"
           y="0"
           sodipodi:role="line"
           id="tspan96">402</tspan></text>
<text
         transform="scale(1,-1)"
         style="font-variant:normal;font-weight:normal;font-size:12px;font-family:'DejaVu Sans';-inkscape-font-specification:DejaVuSans;writing-mode:lr-tb;fill:#000000;fill-opacity:1;fill-rule:nonzero;stroke:none"
         id="text98"
         x="265.58282"
         y="-74.455948"><tspan
           x="265.58282 273.21481 280.8468"
           y="-74.455948"
           sodipodi:role="line"
           id="tspan100">786</tspan></text>
<text
         transform="matrix(1,0,0,-1,220.46736,108.55566)"
         style="font-variant:normal;font-weight:normal;font-size:12px;font-family:'DejaVu Sans';-inkscape-font-specification:DejaVuSans;writing-mode:lr-tb;fill:#000000;fill-opacity:1;fill-rule:nonzero;stroke:none"
         id="text102"><tspan
           x="0 7.632 15.264"
           y="0"
           sodipodi:role="line"
           id="tspan104">528</tspan></text>
<text
         transform="matrix(1,0,0,-1,279.1371,120.555)"
         style="font-variant:normal;font-weight:normal;font-size:12px;font-family:'DejaVu Sans';-inkscape-font-specification:DejaVuSans;writing-mode:lr-tb;fill:#000000;fill-opacity:1;fill-rule:nonzero;stroke:none"
         id="text106"><tspan
           x="0 7.632 15.264"
           y="0"
           sodipodi:role="line"
           id="tspan108">139</tspan></text>
<text
         transform="matrix(1,0,0,-1,248.66368,131.79819)"
         style="font-variant:normal;font-weight:normal;font-size:12px;font-family:'DejaVu Sans';-inkscape-font-specification:DejaVuSans;writing-mode:lr-tb;fill:#000000;fill-opacity:1;fill-rule:nonzero;stroke:none"
         id="text110"><tspan
           x="0 7.632 15.264"
           y="0"
           sodipodi:role="line"
           id="tspan112">176</tspan></text>
<text
         transform="scale(1,-1)"
         style="font-variant:normal;font-weight:normal;font-size:14.39999962px;font-family:'DejaVu Sans';-inkscape-font-specification:DejaVuSans;writing-mode:lr-tb;fill:#000000;fill-opacity:1;fill-rule:nonzero;stroke:none"
         id="text114"
         x="176.4749"
         y="-222.27682"><tspan
           x="176.4749 184.7549 193.56769 202.0925 211.94209"
           y="-222.27682"
           sodipodi:role="line"
           id="tspan116">FoxA2</tspan></text>
<text
         transform="scale(1,-1)"
         style="font-variant:normal;font-weight:normal;font-size:14.39999962px;font-family:'DejaVu Sans';-inkscape-font-specification:DejaVuSans;writing-mode:lr-tb;fill:#000000;fill-opacity:1;fill-rule:nonzero;stroke:none"
         id="text118"
         x="262.70715"
         y="-184.58801"><tspan
           x="262.70715 273.86716 282.69437 288.33917 297.16638"
           y="-184.58801"
           sodipodi:role="line"
           id="tspan120">Gata2</tspan></text>
<text
         transform="scale(1,-1)"
         style="font-variant:normal;font-weight:normal;font-size:14.39999962px;font-family:'DejaVu Sans';-inkscape-font-specification:DejaVuSans;writing-mode:lr-tb;fill:#000000;fill-opacity:1;fill-rule:nonzero;stroke:none"
         id="text122"
         x="241.93848"
         y="-52.592369"><tspan
           x="241.93848 250.62167 259.42007 269.28406"
           y="-52.592369"
           sodipodi:role="line"
           id="tspan124">PTX1</tspan></text>
<text
         transform="scale(1,-1)"
         style="font-variant:normal;font-weight:normal;font-size:12px;font-family:'DejaVu Sans';-inkscape-font-specification:DejaVuSans;writing-mode:lr-tb;fill:#000000;fill-opacity:1;fill-rule:nonzero;stroke:none"
         id="text128"
         x="137.4734"
         y="-52.661335"><tspan
           x="137.4734 145.10544 152.73744 160.36943"
           y="-52.661335"
           sodipodi:role="line"
           id="tspan130">8172</tspan></text>
<text
         style="font-variant:normal;font-weight:normal;font-size:14.39999962px;font-family:'DejaVu Sans';-inkscape-font-specification:DejaVuSans;writing-mode:lr-tb;fill:#000000;fill-opacity:1;fill-rule:nonzero;stroke:none"
         id="text114-1"
         x="280.33325"
         y="-230.60228"
         transform="scale(1,-1)"><tspan
           sodipodi:role="line"
           id="tspan116-6"
           x="280.33325"
           y="-230.60228">Hnf6</tspan></text>
</g></g></svg>